<svg aria-hidden="true" style="position: absolute; width: 0; height: 0; overflow: hidden;" version="1.1" xmlns="http://www.w3.org/2000/svg" xmlns:xlink="http://www.w3.org/1999/xlink">
<defs>
<!-- <symbol id="icon-logo-12" viewBox="0 0 127 32">
<path d="M0 0h127.36v32h-127.36v-32z"></path>
</symbol> -->
<symbol id="icon-Burger" viewBox="0 0 46 32">
<path fill="none" stroke="#d41443" style="stroke: var(--color1, #d41443)" stroke-linejoin="miter" stroke-linecap="butt" stroke-miterlimit="4" stroke-width="2.2857" d="M0 2.286h45.714"></path>
<path fill="none" stroke="#d41443" style="stroke: var(--color1, #d41443)" stroke-linejoin="miter" stroke-linecap="butt" stroke-miterlimit="4" stroke-width="2.2857" d="M0 16h45.714"></path>
<path fill="none" stroke="#d41443" style="stroke: var(--color1, #d41443)" stroke-linejoin="miter" stroke-linecap="butt" stroke-miterlimit="4" stroke-width="2.2857" d="M0 29.714h45.714"></path>
</symbol>

<symbol id="icon-pink-ellipse-cut" viewBox="0 0 26 32">
<path fill="#ffa5ba" style="fill: var(--color1, #ffa5ba)" d="M32.186 16c0 8.837-7.205 16-16.093 16s-16.093-7.163-16.093-16c0-8.837 7.205-16 16.093-16s16.093 7.163 16.093 16z"></path>
</symbol>

<symbol id="icon-icon-pink-ellipse" viewBox="0 0 32 32">
<path fill="#ffa5ba" style="fill: var(--color1, #ffa5ba)" d="M32.199 16c0 8.837-7.208 16-16.099 16s-16.099-7.163-16.099-16c0-8.837 7.208-16 16.099-16s16.099 7.163 16.099 16z"></path>
</symbol>

<symbol id="icon-icon-white-ellipse" viewBox="0 0 32 32">
<path fill="#fff" style="fill: var(--color2, #fff)" d="M0 16c0 8.837 7.163 16 16 16s16-7.163 16-16c0-8.837-7.163-16-16-16s-16 7.163-16 16z"></path>
</symbol>

</defs>
</svg>
